<svg xmlns="http://www.w3.org/2000/svg" viewBox="0 0 760 420" role="img" aria-labelledby="title desc">
  <title id="title">BookCycle reader messages</title>
  <desc id="desc">Illustrated inbox with reader chat bubbles, books, and conversation cards.</desc>
  <defs>
    <linearGradient id="bg" x1="0" x2="1" y1="0" y2="1">
      <stop offset="0" stop-color="#ecfdf5"/>
      <stop offset=".55" stop-color="#ffffff"/>
      <stop offset="1" stop-color="#fff7ed"/>
    </linearGradient>
    <linearGradient id="teal" x1="0" x2="1">
      <stop offset="0" stop-color="#0f766e"/>
      <stop offset="1" stop-color="#14b8a6"/>
    </linearGradient>
    <linearGradient id="warm" x1="0" x2="1">
      <stop offset="0" stop-color="#ea580c"/>
      <stop offset="1" stop-color="#fb923c"/>
    </linearGradient>
    <filter id="shadow" x="-20%" y="-20%" width="140%" height="140%">
      <feDropShadow dx="0" dy="14" stdDeviation="14" flood-color="#0f172a" flood-opacity=".14"/>
    </filter>
  </defs>
  <rect width="760" height="420" rx="28" fill="url(#bg)"/>
  <path d="M0 306 C120 264 238 338 388 300 C535 264 642 278 760 318 L760 420 L0 420 Z" fill="#ccfbf1"/>
  <g filter="url(#shadow)">
    <rect x="92" y="72" width="236" height="260" rx="22" fill="#ffffff"/>
    <rect x="124" y="112" width="120" height="16" rx="8" fill="#0f172a"/>
    <rect x="122" y="154" width="174" height="54" rx="16" fill="#f8fafc" stroke="#cbd5e1"/>
    <circle cx="150" cy="181" r="16" fill="#ccfbf1"/>
    <rect x="178" y="170" width="82" height="10" rx="5" fill="#0f172a"/>
    <rect x="178" y="190" width="60" height="8" rx="4" fill="#cbd5e1"/>
    <rect x="122" y="224" width="174" height="54" rx="16" fill="#ecfdf5" stroke="#99f6e4"/>
    <circle cx="150" cy="251" r="16" fill="#ffedd5"/>
    <rect x="178" y="240" width="70" height="10" rx="5" fill="#0f172a"/>
    <rect x="178" y="260" width="84" height="8" rx="4" fill="#cbd5e1"/>
  </g>
  <g filter="url(#shadow)">
    <rect x="384" y="82" width="268" height="220" rx="22" fill="#ffffff"/>
    <path d="M424 126 h142 a18 18 0 0 1 18 18 v18 a18 18 0 0 1-18 18 h-110 l-32 26 v-26 a18 18 0 0 1-18-18 v-18 a18 18 0 0 1 18-18z" fill="#ecfdf5"/>
    <path d="M612 218 h-132 a18 18 0 0 0-18 18 v18 a18 18 0 0 0 18 18 h100 l32 24 v-24 a18 18 0 0 0 18-18 v-18 a18 18 0 0 0-18-18z" fill="#ffedd5"/>
    <rect x="448" y="148" width="100" height="10" rx="5" fill="#0f766e"/>
    <rect x="494" y="240" width="92" height="10" rx="5" fill="#ea580c"/>
  </g>
  <g filter="url(#shadow)">
    <rect x="514" y="54" width="44" height="112" rx="8" fill="url(#teal)"/>
    <rect x="568" y="54" width="34" height="112" rx="8" fill="url(#warm)"/>
    <rect x="612" y="54" width="30" height="112" rx="8" fill="#2563eb"/>
  </g>
  <path d="M92 356 h568" stroke="#0f172a" stroke-width="18" stroke-linecap="round" opacity=".1"/>
</svg>
