<svg xmlns="http://www.w3.org/2000/svg" viewBox="0 0 760 420" role="img" aria-labelledby="title desc">
  <title id="title">Book offers dashboard</title>
  <desc id="desc">Illustration of offer cards, books, and response controls for a book exchange marketplace.</desc>
  <defs>
    <linearGradient id="bg" x1="0" x2="1" y1="0" y2="1">
      <stop offset="0" stop-color="#ecfdf5"/>
      <stop offset=".55" stop-color="#ffffff"/>
      <stop offset="1" stop-color="#fff7ed"/>
    </linearGradient>
    <linearGradient id="teal" x1="0" x2="1">
      <stop offset="0" stop-color="#0f766e"/>
      <stop offset="1" stop-color="#14b8a6"/>
    </linearGradient>
    <linearGradient id="orange" x1="0" x2="1">
      <stop offset="0" stop-color="#ea580c"/>
      <stop offset="1" stop-color="#fb923c"/>
    </linearGradient>
    <filter id="shadow" x="-20%" y="-20%" width="140%" height="140%">
      <feDropShadow dx="0" dy="14" stdDeviation="14" flood-color="#0f172a" flood-opacity=".14"/>
    </filter>
  </defs>
  <rect width="760" height="420" rx="28" fill="url(#bg)"/>
  <path d="M0 302 C122 260 220 336 366 300 C514 264 632 274 760 318 L760 420 L0 420 Z" fill="#fed7aa"/>
  <g filter="url(#shadow)">
    <rect x="92" y="74" width="250" height="246" rx="22" fill="#ffffff"/>
    <rect x="124" y="112" width="116" height="16" rx="8" fill="#0f172a"/>
    <rect x="124" y="154" width="176" height="12" rx="6" fill="#cbd5e1"/>
    <rect x="124" y="184" width="138" height="12" rx="6" fill="#cbd5e1"/>
    <rect x="124" y="232" width="74" height="40" rx="8" fill="url(#teal)"/>
    <rect x="214" y="232" width="74" height="40" rx="8" fill="#f8fafc" stroke="#cbd5e1"/>
  </g>
  <g filter="url(#shadow)">
    <rect x="408" y="52" width="232" height="132" rx="20" fill="#ffffff"/>
    <rect x="438" y="84" width="44" height="68" rx="8" fill="url(#orange)"/>
    <rect x="496" y="84" width="34" height="68" rx="8" fill="#2563eb"/>
    <rect x="544" y="84" width="48" height="68" rx="8" fill="url(#teal)"/>
    <circle cx="610" cy="120" r="18" fill="#ccfbf1"/>
    <path d="M602 120 h16 M610 112 v16" stroke="#0f766e" stroke-width="5" stroke-linecap="round"/>
  </g>
  <g filter="url(#shadow)">
    <rect x="390" y="220" width="254" height="102" rx="20" fill="#ffffff"/>
    <circle cx="438" cy="271" r="28" fill="#ffedd5"/>
    <path d="M426 272 l9 9 18-22" fill="none" stroke="#ea580c" stroke-width="7" stroke-linecap="round" stroke-linejoin="round"/>
    <rect x="488" y="250" width="98" height="13" rx="7" fill="#0f172a"/>
    <rect x="488" y="280" width="124" height="11" rx="6" fill="#cbd5e1"/>
  </g>
  <path d="M92 354 h568" stroke="#0f172a" stroke-width="18" stroke-linecap="round" opacity=".1"/>
</svg>
