<svg xmlns="http://www.w3.org/2000/svg" viewBox="0 0 760 420" role="img" aria-labelledby="title desc">
  <title id="title">Create a book listing</title>
  <desc id="desc">An illustrated listing form with books, photos, price tags, and publishing cues.</desc>
  <defs>
    <linearGradient id="paper" x1="0" x2="1" y1="0" y2="1">
      <stop offset="0" stop-color="#ffffff"/>
      <stop offset="1" stop-color="#ecfdf5"/>
    </linearGradient>
    <linearGradient id="accent" x1="0" x2="1">
      <stop offset="0" stop-color="#0f766e"/>
      <stop offset="1" stop-color="#14b8a6"/>
    </linearGradient>
    <linearGradient id="warm" x1="0" x2="1">
      <stop offset="0" stop-color="#ea580c"/>
      <stop offset="1" stop-color="#fb923c"/>
    </linearGradient>
    <filter id="shadow" x="-20%" y="-20%" width="140%" height="140%">
      <feDropShadow dx="0" dy="14" stdDeviation="14" flood-color="#0f172a" flood-opacity=".14"/>
    </filter>
  </defs>
  <rect width="760" height="420" rx="28" fill="#fff7ed"/>
  <path d="M0 300 C130 258 234 336 386 294 C520 257 626 272 760 316 L760 420 L0 420 Z" fill="#ccfbf1"/>
  <g filter="url(#shadow)">
    <rect x="98" y="58" width="342" height="284" rx="22" fill="url(#paper)"/>
    <rect x="132" y="100" width="170" height="18" rx="9" fill="#0f172a"/>
    <rect x="132" y="148" width="270" height="34" rx="8" fill="#f8fafc" stroke="#cbd5e1"/>
    <rect x="132" y="202" width="122" height="34" rx="8" fill="#f8fafc" stroke="#cbd5e1"/>
    <rect x="274" y="202" width="128" height="34" rx="8" fill="#f8fafc" stroke="#cbd5e1"/>
    <rect x="132" y="256" width="270" height="48" rx="8" fill="#ecfdf5" stroke="#99f6e4"/>
    <path d="M154 280 h58 M238 280 h42 M306 280 h52" stroke="#0f766e" stroke-width="10" stroke-linecap="round"/>
  </g>
  <g filter="url(#shadow)">
    <rect x="472" y="86" width="174" height="226" rx="20" fill="#ffffff"/>
    <rect x="504" y="122" width="36" height="116" rx="8" fill="url(#accent)"/>
    <rect x="552" y="122" width="28" height="116" rx="8" fill="url(#warm)"/>
    <rect x="592" y="122" width="26" height="116" rx="8" fill="#2563eb"/>
    <path d="M506 264 h110" stroke="#0f172a" stroke-width="12" stroke-linecap="round" opacity=".22"/>
  </g>
  <g filter="url(#shadow)">
    <rect x="430" y="252" width="182" height="76" rx="18" fill="#ffffff"/>
    <circle cx="468" cy="290" r="22" fill="#ffedd5"/>
    <path d="M459 290 h18 M468 281 v18" stroke="#ea580c" stroke-width="6" stroke-linecap="round"/>
    <rect x="506" y="276" width="72" height="12" rx="6" fill="#0f172a"/>
    <rect x="506" y="302" width="52" height="10" rx="5" fill="#cbd5e1"/>
  </g>
  <path d="M88 360 h574" stroke="#0f172a" stroke-width="18" stroke-linecap="round" opacity=".1"/>
</svg>
